<?xml version="1.0" encoding="UTF-8" standalone="no"?>
<svg
   xmlns:dc="http://purl.org/dc/elements/1.1/"
   xmlns:cc="http://creativecommons.org/ns#"
   xmlns:rdf="http://www.w3.org/1999/02/22-rdf-syntax-ns#"
   xmlns:svg="http://www.w3.org/2000/svg"
   xmlns="http://www.w3.org/2000/svg"
   xmlns:sodipodi="http://sodipodi.sourceforge.net/DTD/sodipodi-0.dtd"
   xmlns:inkscape="http://www.inkscape.org/namespaces/inkscape"
   id="SvgjsSvg1006"
   width="45"
   height="380"
   version="1.1"
   sodipodi:docname="PolivoksSaw.svg"
   inkscape:version="0.92.2 5c3e80d, 2017-08-06">
  <metadata
     id="metadata7215">
    <rdf:RDF>
      <cc:Work
         rdf:about="">
        <dc:format>image/svg+xml</dc:format>
        <dc:type
           rdf:resource="http://purl.org/dc/dcmitype/StillImage" />
        <dc:title></dc:title>
      </cc:Work>
    </rdf:RDF>
  </metadata>
  <sodipodi:namedview
     pagecolor="#ffffff"
     bordercolor="#666666"
     borderopacity="1"
     objecttolerance="10"
     gridtolerance="10"
     guidetolerance="10"
     inkscape:pageopacity="0"
     inkscape:pageshadow="2"
     inkscape:window-width="1423"
     inkscape:window-height="1190"
     id="namedview7213"
     showgrid="false"
     inkscape:pagecheckerboard="true"
     inkscape:zoom="2.0011122"
     inkscape:cx="-63.041339"
     inkscape:cy="146.4101"
     inkscape:window-x="742"
     inkscape:window-y="68"
     inkscape:window-maximized="0"
     inkscape:current-layer="SvgjsSvg1006" />
  <defs
     id="SvgjsDefs1007" />
  <path
     style="fill:#fc2847;fill-opacity:1"
     d="M 0,0 H 45 V 380 H 0 Z"
     id="SvgjsRect1008" />
  <path
     inkscape:connector-curvature="0"
     style="fill:#ffd600;stroke-width:0.13677797"
     d="m 22.985474,324.3748 c 4.272909,1.43006 8.227868,3.68515 11.563793,6.57139 3.199744,2.80157 5.914696,6.23366 7.206814,10.19915 0.875767,2.54992 0.695566,5.30539 0.116644,7.89402 -0.578305,2.41149 -1.707634,4.71017 -3.35208,6.64461 1.865056,1.71324 3.712242,3.4436 5.582144,5.15233 -0.249028,0.8754 -0.630672,1.77004 -1.396828,2.36017 -0.640628,0.51953 -1.4608,0.77072 -2.267949,0.95957 -1.826129,-1.78252 -3.661525,-3.55608 -5.488687,-5.33771 -2.276039,1.46082 -5.022686,2.23089 -7.765471,2.3447 -3.454596,0.14345 -6.90795,-0.90274 -9.726651,-2.76109 -1.51996,-0.98144 -2.889971,-2.15494 -4.146782,-3.41973 -0.21526,0.19894 -0.450199,0.37745 -0.691762,0.54748 0.05991,0.42442 0.124806,0.84829 0.18709,1.27281 -0.471681,0.0255 -0.942584,0.13385 -1.338918,0.38356 -1.222834,0.72809 -2.0720011,1.85835 -2.9399511,2.91942 -1.076265,1.31272 -2.043607,2.76982 -3.543511,3.69965 -0.9089595,0.52756 -2.2539726,0.30458 -2.8106355,-0.58216 -0.5822057,-0.87001 -0.2463609,-1.99291 0.3807309,-2.7561 1.5326392,-2.11634 4.2690896,-3.02084 5.9823226,-4.97065 0.445593,-0.52384 0.782559,-1.13101 0.94972,-1.78463 0.437584,0.0263 0.8752231,0.053 1.3129591,0.0798 0.370758,-0.35331 0.743327,-0.70482 1.112677,-1.05928 0.4118,-0.01 0.831473,0.0314 1.238051,-0.0432 0.4244,-0.35169 0.762744,-0.78407 1.146022,-1.1736 0.419818,0.1105 0.658385,0.48047 0.962199,0.74467 1.877824,1.60679 4.025212,3.00709 6.472722,3.72117 3.129764,0.942 6.616598,0.64274 9.552433,-0.72795 -5.880424,-5.68816 -11.741143,-11.39468 -17.613092,-17.09072 -1.316803,1.30261 -2.628488,2.61021 -3.9640821,3.89582 -1.631142,-1.56336 -3.278207,-3.11197 -4.917607,-4.66764 3.090109,-2.90611 6.2147711,-5.7796 9.3219231,-8.66962 2.686286,0.68708 5.369127,1.38624 8.057952,2.06512 -1.837399,1.56723 -3.70517,3.10265 -5.548992,4.66315 6.126872,5.64334 12.223428,11.31649 18.360128,16.95079 1.481426,-1.69341 2.315151,-3.84969 2.428575,-6.03278 0.208972,-2.88861 -0.502477,-5.7622 -1.515947,-8.47187 -1.432614,-3.57603 -4.171587,-6.52008 -7.148503,-9.05259 -1.860611,-1.55376 -3.778178,-3.04951 -5.757451,-4.46802 z m 0,0"
     id="path4" />
  <g
     aria-label="POLIVOKS"
     transform="matrix(0.88662457,0,0,1.1278731,0,6)"
     style="font-style:normal;font-variant:normal;font-weight:normal;font-stretch:normal;font-size:7.09299755px;line-height:1.25;font-family:Kremlin;-inkscape-font-specification:Kremlin;letter-spacing:0px;word-spacing:0px;fill:#000000;fill-opacity:1;stroke:none;stroke-width:0.88662469"
     id="text832">
    <path
       d="M 1.7789888,18.352345 H 3.3767605 V 15.669381 H 7.3988967 V 11.393264 H 1.7789888 Z M 5.801125,12.991036 v 1.085192 H 3.3767605 v -1.085192 z"
       style="font-size:9.4573307px;stroke-width:0.88662469"
       id="path864"
       inkscape:connector-curvature="0" />
    <path
       d="M 8.3547888,18.352345 H 13.974697 V 11.393264 H 8.3547888 Z m 4.0221362,-5.361309 v 3.763537 H 9.9571783 l -0.00462,-3.763537 z"
       style="font-size:9.4573307px;stroke-width:0.88662469"
       id="path866"
       inkscape:connector-curvature="0" />
    <path
       d="m 14.9075,18.36158 h 5.624525 V 16.763809 H 16.505271 V 11.393264 H 14.9075 Z"
       style="font-size:9.4573307px;stroke-width:0.88662469"
       id="path868"
       inkscape:connector-curvature="0" />
    <path
       d="m 21.483301,18.36158 h 1.597771 v -6.968316 h -1.597771 z"
       style="font-size:9.4573307px;stroke-width:0.88662469"
       id="path870"
       inkscape:connector-curvature="0" />
    <path
       d="m 24.120086,12.224475 1.981052,6.137105 h 1.662422 l 2.013377,-6.100163 0.0092,-0.868153 H 28.14684 l -1.186784,4.156054 -1.242198,-4.156054 h -1.597772 z"
       style="font-size:9.4573307px;stroke-width:0.88662469"
       id="path872"
       inkscape:connector-curvature="0" />
    <path
       d="m 30.686649,18.352345 h 5.619908 v -6.959081 h -5.619908 z m 4.022136,-5.361309 v 3.763537 h -2.419747 l -0.0046,-3.763537 z"
       style="font-size:9.4573307px;stroke-width:0.88662469"
       id="path874"
       inkscape:connector-curvature="0" />
    <path
       d="m 37.23936,18.36158 h 1.597772 v -2.428982 l 2.428982,2.428982 h 1.597772 v -0.942038 l -2.53981,-2.530575 2.53981,-2.535193 v -0.96051 h -1.597772 l -2.428982,2.428982 V 11.393264 H 37.23936 Z"
       style="font-size:9.4573307px;stroke-width:0.88662469"
       id="path876"
       inkscape:connector-curvature="0" />
    <path
       d="m 43.801305,15.669381 h 4.022137 v 1.08981 l -4.022137,-0.0046 v 1.597772 h 5.619908 v -4.276117 h -4.022136 v -1.085192 h 4.022136 l -0.0092,-1.597772 H 43.80134 Z"
       style="font-size:9.4573307px;stroke-width:0.88662469"
       id="path878"
       inkscape:connector-curvature="0" />
  </g>
  <g
     aria-label="V/OCT"
     style="font-style:normal;font-variant:normal;font-weight:normal;font-stretch:normal;font-size:8px;line-height:1.25;font-family:Kremlin;-inkscape-font-specification:Kremlin;letter-spacing:0px;word-spacing:0px;fill:#000000;fill-opacity:1;stroke:none"
     id="text836"
     transform="translate(0,4)">
    <path
       d="m 10.093086,71.99263 1.675781,5.191406 h 1.40625 l 1.703125,-5.160156 0.0078,-0.734375 H 13.499336 L 12.49543,74.80513 11.444649,71.289505 h -1.351563 z"
       style="font-size:8px"
       id="path881"
       inkscape:connector-curvature="0" />
    <path
       d="m 17.604805,71.33638 h 0.664062 l -2.03125,6.574219 h -0.664062 z"
       style="font-size:8px"
       id="path883"
       inkscape:connector-curvature="0" />
    <path
       d="m 18.350899,77.176224 h 4.753906 v -5.886719 h -4.753906 z m 3.402343,-4.535156 v 3.183593 h -2.046875 l -0.0039,-3.183593 z"
       style="font-size:8px"
       id="path885"
       inkscape:connector-curvature="0" />
    <path
       d="m 23.893867,77.176224 h 4.753907 V 75.824661 H 25.24543 l 0.0078,-3.183593 h 3.394532 v -1.351563 h -4.753907 z"
       style="font-size:8px"
       id="path887"
       inkscape:connector-curvature="0" />
    <path
       d="m 29.429024,72.641068 h 1.730468 v 4.535156 h 1.347657 v -4.535156 h 1.675781 v -1.351563 h -4.753906 z"
       style="font-size:8px"
       id="path889"
       inkscape:connector-curvature="0" />
  </g>
  <g
     aria-label="OUTPUT"
     style="font-style:normal;font-variant:normal;font-weight:normal;font-stretch:normal;font-size:8px;line-height:1.25;font-family:Kremlin;-inkscape-font-specification:Kremlin;letter-spacing:0px;word-spacing:0px;fill:#000000;fill-opacity:1;stroke:none"
     id="text840">
    <path
       d="m 6.5950632,128.64981 h 4.7539058 v -5.88672 H 6.5950632 Z m 3.4023438,-4.53516 v 3.1836 H 7.950532 l -0.00391,-3.1836 z"
       style=""
       id="path892" />
    <path
       d="m 12.126313,128.65762 h 4.757813 v -5.89453 h -1.351563 v 4.54297 h -2.050781 l -0.0039,-4.54297 h -1.351563 z"
       style=""
       id="path894" />
    <path
       d="m 17.673188,124.11465 h 1.730469 v 4.53516 h 1.347656 v -4.53516 h 1.675781 v -1.35156 h -4.753906 z"
       style=""
       id="path896" />
    <path
       d="m 23.220063,128.64981 h 1.351563 v -2.26953 h 3.402343 v -3.61719 h -4.753906 z m 3.402344,-4.53516 v 0.91797 h -2.050781 v -0.91797 z"
       style=""
       id="path898" />
    <path
       d="m 28.766938,128.65762 h 4.757813 v -5.89453 h -1.351563 v 4.54297 h -2.050781 l -0.0039,-4.54297 h -1.351563 z"
       style=""
       id="path900" />
    <path
       d="m 34.313813,124.11465 h 1.730469 v 4.53516 h 1.347656 v -4.53516 h 1.675781 v -1.35156 h -4.753906 z"
       style=""
       id="path902" />
  </g>
  <g
     aria-label="SAW"
     style="font-style:normal;font-variant:normal;font-weight:normal;font-stretch:normal;font-size:8px;line-height:1.25;font-family:Kremlin;-inkscape-font-specification:Kremlin;letter-spacing:0px;word-spacing:0px;fill:#000000;fill-opacity:1;stroke:none"
     id="text929">
    <path
       d="m 13.603397,32.430305 h 3.402344 v 0.921875 l -3.402344,-0.0039 v 1.351563 h 4.753907 V 31.082649 H 14.95496 V 30.16468 h 3.402344 l -0.0078,-1.351562 h -4.746094 z"
       style=""
       id="path931" />
    <path
       d="m 19.146366,34.699837 h 1.351563 v -1.132813 h 2.050781 v 1.132813 h 1.351562 V 28.813118 H 19.146366 Z M 22.54871,30.16468 v 2.050782 H 20.497929 V 30.16468 Z"
       style=""
       id="path933" />
    <path
       d="m 24.712772,34.707649 h 5.894532 v -5.894531 h -1.351563 v 4.542969 h -0.917969 v -4.542969 h -1.355468 v 4.542969 h -0.917969 v -4.542969 h -1.351563 z"
       style=""
       id="path935" />
  </g>
</svg>
